<svg width="141" height="45" viewBox="0 0 141 45" fill="none" xmlns="http://www.w3.org/2000/svg">
<g filter="url(#filter0_d_8_154)">
<path d="M11.8775 27.6807H25.5737C26.254 27.6807 26.7598 27.7107 27.0955 27.7608C27.4401 27.816 27.8385 27.9763 28.295 28.2419C29.0917 28.6979 29.4945 29.9857 29.4945 32.1104C29.4945 34.4355 28.944 35.7985 27.8474 36.1993C27.3461 36.3998 26.5763 36.5 25.5379 36.5H7.92086C5.84406 36.5 4.62662 35.8736 4.26855 34.6159C4.08952 34.0847 4 33.2328 4 32.0703V4.38962C4 2.69591 4.2775 1.53837 4.84146 0.922021C5.41437 0.31068 6.47963 0 8.04618 0H25.5737C26.254 0 26.7598 0.0300653 27.0955 0.0801757C27.4401 0.135297 27.8385 0.295648 28.295 0.56123C29.0917 1.01723 29.4945 2.30505 29.4945 4.42971C29.4945 6.75481 28.944 8.11779 27.8474 8.51867C27.3461 8.71911 26.5763 8.81933 25.5379 8.81933H11.8775V13.8504H20.686C21.3664 13.8504 21.8721 13.8804 22.2078 13.9305C22.5525 13.9706 22.9463 14.126 23.3894 14.3915C24.1861 14.8626 24.589 16.1554 24.589 18.2801C24.589 20.6052 24.025 21.9681 22.9061 22.369C22.4048 22.5594 21.6349 22.6496 20.5965 22.6496H11.8775V27.6807Z" fill="#0698D8"/>
<path d="M53.3977 26.6648L54.311 26.0378C55.4476 25.3864 56.2493 25.0582 56.7263 25.0582C57.7664 25.0582 58.8878 25.9693 60.0954 27.7815C60.8362 28.9179 61.2117 29.8289 61.2117 30.5048C61.2117 31.1857 60.9783 31.7538 60.5216 32.2093C60.0751 32.6698 59.5474 33.0812 58.9385 33.4436C58.3398 33.7963 57.7664 34.1392 57.2134 34.4624C56.6552 34.7759 55.5187 35.1971 53.8036 35.7163C52.0836 36.2355 50.4244 36.5 48.8311 36.5C47.2328 36.5 45.6142 36.2943 43.9804 35.8926C42.3567 35.491 40.6772 34.8102 38.947 33.8551C37.2117 32.8902 35.6591 31.7195 34.2789 30.3481C32.909 28.9669 31.7825 27.1938 30.8895 25.0386C29.9965 22.8835 29.55 20.5423 29.55 18.0051C29.55 15.4728 29.9813 13.1806 30.8489 11.1283C31.7267 9.06622 32.843 7.36172 34.1978 6.01476C35.5627 4.6727 37.1255 3.54126 38.8861 2.62534C42.1741 0.876745 45.4823 0 48.8108 0C50.3939 0 51.9973 0.235105 53.621 0.705314C55.2548 1.17552 56.4929 1.65553 57.3351 2.13553L58.5326 2.82126C59.1415 3.17391 59.6134 3.46779 59.9533 3.7029C60.8311 4.38372 61.2726 5.15271 61.2726 6.01476C61.2726 6.86702 60.9123 7.75845 60.1969 8.69887C58.8827 10.4622 57.7055 11.3438 56.6654 11.3438C56.0666 11.3438 55.2142 10.9862 54.1081 10.2662C52.6874 9.16908 50.8049 8.6205 48.4658 8.6205C46.2739 8.6205 44.1225 9.34541 42.0117 10.7952C40.9969 11.5152 40.1495 12.5291 39.4747 13.832C38.81 15.1251 38.4802 16.5945 38.4802 18.2402C38.4802 19.8761 38.81 21.3357 39.4747 22.6288C40.1495 23.9219 41.0071 24.9407 42.0523 25.6852C44.1073 27.1252 46.2434 27.8403 48.4658 27.8403C49.506 27.8403 50.4853 27.713 51.4087 27.4485C52.3271 27.1889 52.9918 26.9293 53.3977 26.6648Z" fill="#0698D8"/>
<path d="M88.108 1.36449C88.3834 0.857821 88.8459 0.501649 89.5007 0.30099C90.1659 0.10033 90.9973 0 91.9951 0C92.9929 0 93.7828 0.0902975 94.3648 0.260858C94.9469 0.421385 95.3886 0.622045 95.6952 0.862837C96.0122 1.0936 96.2616 1.41967 96.4435 1.84607C96.6098 2.40792 96.693 3.27075 96.693 4.43458V32.1056C96.693 32.8681 96.6618 33.445 96.6098 33.8312C96.5526 34.2075 96.3915 34.6439 96.1317 35.1355C95.6432 36.0485 94.3025 36.5 92.0991 36.5C89.6878 36.5 88.2743 35.888 87.8585 34.6539C87.6507 34.0821 87.5467 33.2092 87.5467 32.0454V21.9321H73.869V32.1056C73.869 32.8681 73.8378 33.445 73.7858 33.8312C73.7442 34.2075 73.5831 34.6439 73.3077 35.1355C72.8192 36.0485 71.4785 36.5 69.275 36.5C66.8638 36.5 65.4503 35.888 65.0345 34.6539C64.8267 34.0821 64.7227 33.2092 64.7227 32.0454V4.39445C64.7227 3.63194 64.7487 3.06508 64.8059 2.68884C64.8578 2.30257 65.0241 1.8561 65.3048 1.34442C65.7725 0.451485 67.1132 0 69.3166 0C71.7279 0 73.1622 0.617029 73.6195 1.84607C73.7858 2.40792 73.869 3.27075 73.869 4.43458V14.608H87.5467V4.39445C87.5467 3.63194 87.5727 3.06508 87.6299 2.68884C87.6818 2.30257 87.8429 1.86112 88.108 1.36449Z" fill="#0698D8"/>
<path d="M118.235 0C123.17 0 127.465 1.72951 131.114 5.18366C134.758 8.62807 136.585 12.9104 136.585 18.0259C136.585 23.1462 134.839 27.5065 131.357 31.102C127.884 34.7023 123.605 36.5 118.517 36.5C113.44 36.5 109.12 34.7266 105.557 31.1799C102.004 27.6235 100.227 23.3947 100.227 18.4936C100.227 15.8189 100.722 13.3099 101.721 10.9714C102.731 8.6232 104.068 6.65984 105.738 5.08623C107.419 3.50287 109.342 2.26054 111.512 1.36412C113.677 0.457955 115.918 0 118.235 0ZM109.11 18.2403C109.11 21.1147 110.064 23.4434 111.976 25.2363C113.899 27.0291 116.044 27.9255 118.416 27.9255C120.798 27.9255 122.938 27.0583 124.836 25.3142C126.744 23.5749 127.703 21.2365 127.703 18.2987C127.703 15.3659 126.739 13.0127 124.816 11.2443C122.903 9.46603 120.758 8.57448 118.376 8.57448C116.004 8.57448 113.864 9.4709 111.956 11.2637C110.059 13.0468 109.11 15.3707 109.11 18.2403Z" fill="#0698D8"/>
</g>
<defs>
<filter id="filter0_d_8_154" x="0" y="0" width="140.585" height="44.5" filterUnits="userSpaceOnUse" color-interpolation-filters="sRGB">
<feFlood flood-opacity="0" result="BackgroundImageFix"/>
<feColorMatrix in="SourceAlpha" type="matrix" values="0 0 0 0 0 0 0 0 0 0 0 0 0 0 0 0 0 0 127 0" result="hardAlpha"/>
<feOffset dy="4"/>
<feGaussianBlur stdDeviation="2"/>
<feComposite in2="hardAlpha" operator="out"/>
<feColorMatrix type="matrix" values="0 0 0 0 0 0 0 0 0 0 0 0 0 0 0 0 0 0 0.25 0"/>
<feBlend mode="normal" in2="BackgroundImageFix" result="effect1_dropShadow_8_154"/>
<feBlend mode="normal" in="SourceGraphic" in2="effect1_dropShadow_8_154" result="shape"/>
</filter>
</defs>
</svg>
